<svg width="26" height="23" xmlns="http://www.w3.org/2000/svg" xmlns:xlink="http://www.w3.org/1999/xlink" xmlns:svgjs="http://svgjs.com/svgjs" viewBox="5439 181 26 23"><svg width="26" height="6" xmlns="http://www.w3.org/2000/svg" xmlns:xlink="http://www.w3.org/1999/xlink" xmlns:svgjs="http://svgjs.com/svgjs" viewBox="0 0.754 26 4.492" fill="#2f58e2" x="5439" y="181"><svg xmlns="http://www.w3.org/2000/svg" xmlns:xlink="http://www.w3.org/1999/xlink" width="26" height="6" viewBox="0.198 0.761 25.686 4.438"><path paint-order="stroke fill markers" fill-rule="evenodd" d="M24.032.761H2.052A1.862 1.862 0 0 0 .197 2.596v.747A1.854 1.854 0 0 0 2.051 5.2h21.981a1.855 1.855 0 0 0 1.853-1.852V2.6A1.862 1.862 0 0 0 24.032.76z"/></svg></svg><svg width="26" height="5" xmlns="http://www.w3.org/2000/svg" xmlns:xlink="http://www.w3.org/1999/xlink" xmlns:svgjs="http://svgjs.com/svgjs" viewBox="0 0.253 26 4.494" fill="#2f58e2" x="5439" y="190"><svg xmlns="http://www.w3.org/2000/svg" xmlns:xlink="http://www.w3.org/1999/xlink" width="26" height="5" viewBox="0.198 0.166 25.686 4.44"><path paint-order="stroke fill markers" fill-rule="evenodd" d="M24.032.166H2.052A1.862 1.862 0 0 0 .197 2.001v.753c.001 1.023.83 1.852 1.853 1.853h21.981a1.855 1.855 0 0 0 1.853-1.853v-.75A1.862 1.862 0 0 0 24.032.167z"/></svg></svg><svg width="14" height="6" xmlns="http://www.w3.org/2000/svg" xmlns:xlink="http://www.w3.org/1999/xlink" xmlns:svgjs="http://svgjs.com/svgjs" viewBox="0 0.743 14 4.514" fill="#2f58e2" x="5439" y="198"><svg xmlns="http://www.w3.org/2000/svg" width="14" height="6" viewBox="0.198 0.572 13.77 4.44"><path paint-order="stroke fill markers" fill-rule="evenodd" d="M2.051.573h10.064c1.023 0 1.853.83 1.853 1.854v.733c0 1.02-.824 1.848-1.844 1.852H2.05A1.852 1.852 0 0 1 .198 3.159v-.734c0-1.024.83-1.853 1.853-1.853v.001z"/></svg></svg></svg>